<svg width="247" height="225" viewBox="0 0 247 225" fill="none" xmlns="http://www.w3.org/2000/svg">
<path d="M117.15 32.3017L114.5 34.5L122.5 41.5L125.607 39C150.039 58.1411 154.238 76.3102 152.774 100.996H148.25L147.5 110.496H152.188C150.762 134.545 143.565 152.518 128.06 172.5L121.75 169L114.5 178.25L121.376 181.198C106.891 199.866 91.359 212.727 73 224.5L153.5 224.5C229.5 141.496 203 46.9964 88 15.5C101.238 21.6998 108.288 25.3584 117.15 32.3017Z" fill="#22C55E"/>
<path d="M171.5 223C270.5 195.5 287.5 7.49999 124.748 0.499938L0 0V163.5C16.5 159 47.4999 142 57.9999 133V21.4999C131.5 40.9999 121 131.5 0 180V224.5L48.9999 225C74.7432 209.554 93.1804 196.062 109.809 176.129L114.5 178.25L121.75 169L117.5 167C133.176 148.208 140.049 131.806 141.761 110.5H147.5L148.25 101H142.668C144.471 78.5587 140.673 61.5587 119.887 43.7015L122.5 41.4999L114.5 34.4999L111.825 36.7576C98.0589 24.932 82.6685 17.6498 56.4999 8.49993C219 5.49993 243 152.5 171.5 223Z" fill="#3730A3"/>
</svg>
